# xmcd
#
# Track frame offsets:
#	150
#	14947
#	33557
#	45465
#	63500
#	78165
#	97325
#	112650
#	129460
#	145132
#	161497
#	176505
#	189382
#	207892
#
# Disc length: 2954 seconds
#
# Revision: 1
# Processed by: cddbd v1.5.1PL0 Copyright (c) Steve Scherf et al.
# Submitted via: audiograbber 1.83.01
#
DISCID=bd0b880e
DTITLE=Steve Bailey and The Blue Flames - Bailey's Blues
DYEAR=2001
DGENRE=
TTITLE0=Used to Be My Happy Home
TTITLE1=It's Alright (for Isaac Scott)
TTITLE2=House Party Bar B Q
TTITLE3=Somethin' to Tell You
TTITLE4=Knockin' At Your Door
TTITLE5=Hoodoo II
TTITLE6=Tell Me When
TTITLE7=My Heart Fell Like a Rock
TTITLE8=I Want to Sleep With Phyllis Diller
TTITLE9=Broke and Hungry
TTITLE10=Long as My Baby's There
TTITLE11=Ain't Enough Good Love to Go Around
TTITLE12=Biscuit Roller
TTITLE13=Steve's Acoustic Boogie
EXTD=
EXTT0=
EXTT1=
EXTT2=
EXTT3=
EXTT4=
EXTT5=
EXTT6=
EXTT7=
EXTT8=
EXTT9=
EXTT10=
EXTT11=
EXTT12=
EXTT13=
PLAYORDER=
